/* XPM */
static char * qversare_ico_xpm[] = {
"32 32 8 1",
" 	c None",
".	c #010000",
"+	c #020001",
"@	c #010001",
"#	c #020101",
"$	c #010101",
"%	c #000000",
"&	c #020000",
"                                ",
"        ....                    ",
"      .+@  .#..                 ",
"     #@      .+@                ",
"    #+        @+.               ",
"   ++.        ..+               ",
"   @.          ...              ",
"  ...          ...              ",
"  ...          @.@              ",
"  +..          .++              ",
"  ...                           ",
"  ...        #@.+@       @..#$  ",
"  ...        @@..         ...   ",
"  +..         ..@         .+    ",
"  @..         %.@         .$    ",
"  @.+          @+        .@     ",
"   ++          ...       @@     ",
"   ++.         ..@       +      ",
"    ++@         ..      ..      ",
"     ##.     +. @..     ..      ",
"      .++@@@#.  ..@    %.       ",
"         .+.@    .$    @.       ",
"          ..+    @@    +        ",
"           +++   @    @#        ",
"            +++   @$  +@        ",
"             @++.#@   @         ",
"              ..%  +@.+         ",
"                  @+.+          ",
"                   ..@          ",
"                   .&.          ",
"                    .           ",
"                                "};
